<svg width="95" height="14" viewBox="0 0 95 14" fill="none" xmlns="http://www.w3.org/2000/svg">
<path d="M0.383654 14V0.589999H9.29365V2.75H2.83165V6.188H8.93366V8.348H2.83165V11.84H9.29365V14H0.383654ZM14.5087 14V0.589999H16.9567V11.84H22.6987V14H14.5087ZM27.7022 14V0.589999H36.6122V2.75H30.1502V6.188H36.2522V8.348H30.1502V11.84H36.6122V14H27.7022ZM45.4093 14L40.7293 0.589999H43.3933L47.0653 11.696H46.5433L50.2153 0.589999H52.8793L48.2173 14H45.4093ZM55.8914 14L60.5174 0.589999H63.6854L68.3114 14H65.6474L64.6934 11.12H59.5094L58.5374 14H55.8914ZM60.2114 8.96H63.9914L61.7594 2.282H62.4434L60.2114 8.96ZM74.7034 14V2.75H71.2294V0.589999H80.5894V2.75H77.1694V14H74.7034ZM85.5033 14V0.589999H94.4133V2.75H87.9513V6.188H94.0533V8.348H87.9513V11.84H94.4133V14H85.5033Z" fill="#D6E4FF"/>
</svg>
